<mxfile host="app.diagrams.net" modified="2023-08-22T07:22:47.966Z" agent="Mozilla/5.0 (Windows NT 10.0; Win64; x64) AppleWebKit/537.36 (KHTML, like Gecko) Chrome/116.0.0.0 Safari/537.36" etag="8_xel6-CiEiJQXWWb_C2" version="21.6.8" type="github">
  <diagram name="Page-1" id="sSQCbi4duUTKgkkGbgs3">
    <mxGraphModel dx="880" dy="446" grid="1" gridSize="20" guides="1" tooltips="1" connect="1" arrows="1" fold="1" page="1" pageScale="1" pageWidth="850" pageHeight="1100" math="0" shadow="0">
      <root>
        <mxCell id="0" />
        <mxCell id="1" parent="0" />
        <mxCell id="te1a1-haSNDrP9BfwwIy-12" value="&lt;b&gt;&lt;font color=&quot;#3333ff&quot;&gt;player1&lt;br&gt;&lt;/font&gt;&lt;/b&gt;(&lt;font color=&quot;#0000ff&quot;&gt;&lt;b&gt;user&lt;/b&gt;&lt;/font&gt;)" style="shape=umlActor;verticalLabelPosition=bottom;verticalAlign=top;html=1;outlineConnect=0;" vertex="1" parent="1">
          <mxGeometry x="30" y="280" width="70" height="120" as="geometry" />
        </mxCell>
        <mxCell id="te1a1-haSNDrP9BfwwIy-20" value="" style="rounded=0;whiteSpace=wrap;html=1;fontStyle=3" vertex="1" parent="1">
          <mxGeometry x="160" y="170" width="240" height="360" as="geometry" />
        </mxCell>
        <mxCell id="te1a1-haSNDrP9BfwwIy-22" value="" style="ellipse;whiteSpace=wrap;html=1;" vertex="1" parent="1">
          <mxGeometry x="210" y="230" width="140" height="80" as="geometry" />
        </mxCell>
        <mxCell id="te1a1-haSNDrP9BfwwIy-25" value="" style="endArrow=none;html=1;rounded=0;" edge="1" parent="1">
          <mxGeometry width="50" height="50" relative="1" as="geometry">
            <mxPoint x="100" y="320" as="sourcePoint" />
            <mxPoint x="209.83712534977622" y="271.94625765947296" as="targetPoint" />
            <Array as="points">
              <mxPoint x="100" y="320" />
            </Array>
          </mxGeometry>
        </mxCell>
        <mxCell id="te1a1-haSNDrP9BfwwIy-26" value="" style="ellipse;whiteSpace=wrap;html=1;" vertex="1" parent="1">
          <mxGeometry x="200" y="370" width="140" height="80" as="geometry" />
        </mxCell>
        <mxCell id="te1a1-haSNDrP9BfwwIy-27" value="player2&lt;br&gt;user" style="shape=umlActor;verticalLabelPosition=bottom;verticalAlign=top;html=1;outlineConnect=0;" vertex="1" parent="1">
          <mxGeometry x="480" y="425" width="90" height="140" as="geometry" />
        </mxCell>
        <mxCell id="te1a1-haSNDrP9BfwwIy-36" value="" style="endArrow=none;html=1;rounded=0;entryX=0;entryY=0.3333333333333333;entryDx=0;entryDy=0;entryPerimeter=0;" edge="1" parent="1" source="te1a1-haSNDrP9BfwwIy-26" target="te1a1-haSNDrP9BfwwIy-27">
          <mxGeometry width="50" height="50" relative="1" as="geometry">
            <mxPoint x="400" y="390" as="sourcePoint" />
            <mxPoint x="500" y="430" as="targetPoint" />
          </mxGeometry>
        </mxCell>
        <mxCell id="te1a1-haSNDrP9BfwwIy-43" value="&lt;i&gt;&lt;span&gt;game tebak angka&lt;/span&gt;&lt;/i&gt;" style="text;html=1;strokeColor=none;fillColor=none;align=center;verticalAlign=middle;whiteSpace=wrap;rounded=0;fontStyle=1" vertex="1" parent="1">
          <mxGeometry x="210" y="180" width="140" height="30" as="geometry" />
        </mxCell>
        <mxCell id="te1a1-haSNDrP9BfwwIy-44" value="Random angka" style="text;html=1;strokeColor=none;fillColor=none;align=center;verticalAlign=middle;whiteSpace=wrap;rounded=0;fontStyle=1" vertex="1" parent="1">
          <mxGeometry x="220" y="255" width="120" height="30" as="geometry" />
        </mxCell>
        <mxCell id="te1a1-haSNDrP9BfwwIy-46" value="tebak angka" style="text;html=1;strokeColor=none;fillColor=none;align=center;verticalAlign=middle;whiteSpace=wrap;rounded=0;" vertex="1" parent="1">
          <mxGeometry x="220" y="395" width="100" height="30" as="geometry" />
        </mxCell>
      </root>
    </mxGraphModel>
  </diagram>
</mxfile>
